<?xml version="1.0" encoding="UTF-8" standalone="no"?>
<!-- Created with Inkscape (http://www.inkscape.org/) -->

<svg
   xmlns:dc="http://purl.org/dc/elements/1.1/"
   xmlns:cc="http://creativecommons.org/ns#"
   xmlns:rdf="http://www.w3.org/1999/02/22-rdf-syntax-ns#"
   xmlns:svg="http://www.w3.org/2000/svg"
   xmlns="http://www.w3.org/2000/svg"
   xmlns:sodipodi="http://sodipodi.sourceforge.net/DTD/sodipodi-0.dtd"
   xmlns:inkscape="http://www.inkscape.org/namespaces/inkscape"
   width="30"
   height="28"
   viewBox="0 0 7.9374998 7.4083335"
   version="1.1"
   id="svg8"
   inkscape:version="0.92.4 (33fec40, 2019-01-16)"
   sodipodi:docname="brand_original.svg">
  <defs
     id="defs2" />
  <sodipodi:namedview
     id="base"
     pagecolor="#ffffff"
     bordercolor="#666666"
     borderopacity="1.0"
     inkscape:pageopacity="0.0"
     inkscape:pageshadow="2"
     inkscape:zoom="11.2"
     inkscape:cx="14.017831"
     inkscape:cy="21.365446"
     inkscape:document-units="mm"
     inkscape:current-layer="layer1"
     showgrid="false"
     units="px"
     guidecolor="#00ffff"
     guideopacity="0.49803922"
     inkscape:window-width="1920"
     inkscape:window-height="1004"
     inkscape:window-x="3840"
     inkscape:window-y="0"
     inkscape:window-maximized="1"
     showguides="true"
     inkscape:guide-bbox="true" />
  <metadata
     id="metadata5">
    <rdf:RDF>
      <cc:Work
         rdf:about="">
        <dc:format>image/svg+xml</dc:format>
        <dc:type
           rdf:resource="http://purl.org/dc/dcmitype/StillImage" />
        <dc:title />
      </cc:Work>
    </rdf:RDF>
  </metadata>
  <g
     inkscape:label="Layer 1"
     inkscape:groupmode="layer"
     id="layer1"
     transform="translate(0,-289.59165)">
    <g
       aria-label="jtb"
       style="font-style:normal;font-weight:normal;font-size:4.23333311px;line-height:1.25;font-family:sans-serif;letter-spacing:0px;word-spacing:0px;fill:#000000;fill-opacity:1;stroke:none;stroke-width:0.26458332"
       id="text1368">
      <path
         d="m 2.7885451,292.62379 c -0.2370667,-0.0593 -0.4572,0.0804 -0.6265333,0.26247 -0.0127,0.0127 -0.059267,0.0677 -0.029633,0.0974 0,0 0.0381,0.0423 0.0889,-0.004 0.1312333,-0.127 0.2836333,-0.22013 0.3979333,-0.19473 0.1778,0.0339 0.071967,0.381 0.055033,0.44027 -0.1735667,0.56303 -0.4233333,1.3716 -0.6477,2.08703 -0.3979333,1.2573 -0.7831666,1.29963 -0.8847666,1.30387 -0.3344333,-0.0254 -0.3005667,-0.13547 -0.4572,-0.26247 -0.13123332,-0.11007 -0.22013331,0.004 -0.22013331,0.004 -0.20319999,0.31327 0.48683331,0.381 0.48683331,0.381 0.9017,0.0423 1.2911666,-1.24883 1.2911666,-1.24883 0,0 0.4233333,-1.30387 0.7323667,-2.25213 0.080433,-0.24554 0.1439333,-0.53764 -0.1862667,-0.61384 z m 0.2624666,-0.37253 c 0.1227667,0 0.2328334,-0.10583 0.2328334,-0.23283 0,-0.12277 -0.1100667,-0.23284 -0.2328334,-0.23284 -0.1227666,0 -0.2328333,0.11007 -0.2328333,0.23284 0,0.127 0.1100667,0.23283 0.2328333,0.23283 z"
         style="font-style:normal;font-variant:normal;font-weight:normal;font-stretch:normal;font-size:4.23333311px;font-family:'Aphrodite Text';-inkscape-font-specification:'Aphrodite Text';fill:#a3000b;fill-opacity:1;stroke-width:0.26458332"
         id="path1410"
         inkscape:connector-curvature="0" />
      <path
         d="m 3.9194687,292.73809 c 0,0 0.00423,-0.0252 0.033867,-0.0254 l 0.2465727,-0.001 c 0.059266,-3.5e-4 0.0889,-0.0339 0.094414,-0.0707 -0.00354,-0.047 -0.047646,-0.0706 -0.089973,-0.0715 l -0.200214,-0.004 c -0.012697,-2.8e-4 -0.0254,-0.008 -0.016933,-0.0254 0.00423,-0.0169 0.1651,-0.51647 0.1651,-0.51647 0,0 0.1227667,-0.36407 0.2582333,-0.46567 0.046567,-0.0381 -0.059267,-0.0423 -0.059267,-0.0423 -0.1947334,0.0169 -0.3513667,0.10583 -0.4995333,0.48683 0,0 -0.080433,0.23284 -0.1820334,0.53764 -0.00423,0.0169 -0.021167,0.0254 -0.033867,0.0254 H 3.4368685 c -0.055033,0 -0.0889,0.0339 -0.0889,0.0762 0,0.0381 0.016933,0.072 0.0635,0.072 0.016933,0 0.1905,0.0169 0.0635,0.381 -0.1354667,0.4191 -0.2709333,0.8255 -0.3132666,0.9525 -0.097367,0.2794 -0.2413,0.74507 0.1777999,0.74507 0.2667,0 0.4995334,-0.25823 0.5842,-0.47413 0.00847,-0.0254 0.016933,-0.0508 -0.0127,-0.0677 -0.0381,-0.0169 -0.071967,0.0296 -0.071967,0.0296 -0.080433,0.127 -0.1566334,0.30056 -0.3259667,0.28786 -0.1439333,-0.008 -0.097367,-0.30903 0.029633,-0.6985 z"
         style="font-style:normal;font-variant:normal;font-weight:normal;font-stretch:normal;font-size:4.23333311px;font-family:'Aphrodite Text';-inkscape-font-specification:'Aphrodite Text';fill:#a3000b;fill-opacity:1;stroke-width:0.26458332"
         id="path1412"
         inkscape:connector-curvature="0"
         sodipodi:nodetypes="csscssccccccssssccscccccc" />
      <path
         d="m 7.6341523,289.92716 c -0.067733,-0.0296 -0.1608666,-0.0423 -0.2709333,-0.0423 -1.2953999,0 -2.5992665,1.85843 -3.1580665,3.72956 -0.046567,0.20744 -0.0762,0.38947 -0.0762,0.5461 0,0.33867 0.1524,0.62654 0.5672666,0.62654 0.5461,0 1.2996333,-0.85514 1.2996333,-1.6764 0,-0.50377 -0.3852333,-0.48684 -0.4233333,-0.48684 -0.2032,0 -0.5884333,0.0847 -0.889,0.5588 0,0 0.2624667,-0.84243 0.9186333,-1.8796 0.5376333,-0.8509 0.9906,-1.22766 1.4647333,-1.22766 0.1481666,0 0.3005666,0.0381 0.4614333,0.11006 0.016933,0.008 0.033867,0.0127 0.0508,0.0127 0.080433,0 0.1608666,-0.0677 0.1608666,-0.14393 0,-0.0466 -0.029633,-0.0931 -0.1058333,-0.127 z m -2.1547665,2.8956 c 0.093133,0.0296 0.1439333,0.14393 0.1439333,0.31327 0,0.71543 -0.6138333,1.524 -0.9652,1.524 -0.1524,0 -0.2497666,-0.13124 -0.2497666,-0.32597 0,-0.28787 0.1693333,-0.69003 0.2667,-0.889 0.2667,-0.55457 0.5503333,-0.63923 0.6984999,-0.63923 0.067733,0 0.1058334,0.0169 0.1058334,0.0169 z"
         style="font-style:normal;font-variant:normal;font-weight:normal;font-stretch:normal;font-size:4.23333311px;font-family:'Aphrodite Text';-inkscape-font-specification:'Aphrodite Text';fill:#a3000b;fill-opacity:1;stroke-width:0.26458332"
         id="path1414"
         inkscape:connector-curvature="0" />
    </g>
  </g>
</svg>
